<svg class="img-fluid" xmlns="http://www.w3.org/2000/svg" style="transform:matrix(1.11388,0,0,1.11388,0,0);transform-origin:50% 50%;cursor:move;max-height:none;transition:transform 200ms ease-in-out 0s" width="100" height="50" viewBox="1 279 998 553">
  <path d="M40 830.2c-15.8-4.8-29-17.4-35.2-33.4C1.2 787.4 1 777.8 1 554V321l4.2-9.2c5.4-11.6 17-23.2 28.6-28.6L43 279h914l9.2 4.2c11.6 5.4 23.2 17 28.6 28.6l4.2 9.2v233c0 223.8-.2 233.4-3.8 242.8-5 13-15.8 24.8-28.2 30.4l-10 4.8-456-.2c-250.8 0-458.2-.8-461-1.6zm215.8-61.8c11-5.4 15-12.6 15.8-28.2 1-17.6-2-26.8-11.2-33.8-6.8-5.2-8.2-5.4-34-6.2-44-1-53.4 5.2-53.4 35.8 0 19 2.8 25.6 14 32.2 8.6 5.4 58.6 5.6 68.8.2zm414.8.8c3.6-1.4 8.6-5.2 11.4-8.2 4.6-5 5-6.8 5-25 0-19.2-.2-20-5.8-25.8-3.4-3.4-9.2-7.2-13-8.2-9.8-2.6-326.6-2.6-336.4 0-3.8 1-9.6 4.8-13 8.2-5.6 5.8-5.8 6.6-5.8 25.8 0 21.4 1.4 24.4 14 32.2 5.8 3.6 13.8 3.8 171.6 3.8 135.8 0 166.6-.4 172-2.8zm140.2 0c3.6-1.4 8.8-5.8 11.4-9.4 4.2-6 4.8-9 4.8-23.8 0-30.6-9.4-36.8-53.6-35.8-23.6.8-27.8 1.4-32.8 5-8.6 6.4-12.6 16-12.6 30.8 0 15.6 4.2 25 13.8 31.4 6.2 4.2 9 4.6 34.6 4.6 19.2 0 29.8-.8 34.4-2.8zM189.6 656c8.8-5.4 12.4-14.8 12.4-32.2 0-25.2-9-33.8-35.4-33.8-26.8 0-35.6 8.6-35.6 35 0 18.2 2.8 24.4 13.6 31 9.2 5.8 35.8 5.6 45 0zm113.6-2c7.4-7 10.8-16 10.8-29s-3.4-22-11-29c-4.6-4.4-7.4-5-23.2-5.6-15.2-.6-18.6-.2-24.6 3.4-9.4 5.8-13.2 15-13.2 31.6 0 15.6 3.6 24.4 13 30.8 5.2 3.4 8.6 3.8 24.4 3.4 16.2-.6 18.8-1.2 23.8-5.6zm108.2 2c9.6-5.8 12.6-13.4 12.6-31.2 0-26.4-8.6-34.8-35.4-34.8-26 0-35.4 9.2-35.4 35 0 26 9.2 35 35.8 35 12.4 0 17.4-1 22.4-4zm110.8.6c8.4-5 13.8-17.4 13.8-31.2 0-14.2-3.4-23-11.8-30-6-5-7.8-5.4-24.2-5.4s-18.2.4-24.2 5.4c-8.4 7-11.8 15.8-11.8 30 0 13.6 5.4 26 13.4 31s36.6 5 44.8.2zm111.2-.6c9.6-5.8 13.4-14.6 13.4-31 0-25.8-9.4-35-35.4-35-27 0-35.4 8-35.4 34.6 0 27.2 8 35.4 35 35.4 12.4 0 17.4-1 22.4-4zm111.6 0c9.2-5.6 13-15 13-31.4s-4.2-25.6-14.2-31c-5.4-3-10.2-3.8-24.2-3.2-15.2.6-18 1.2-22.6 5.6-7.6 7-11 16-11 29 0 13.8 3.6 22.6 11.8 29.6 6 5 8 5.4 23.6 5.4 13.6 0 18.4-.8 23.6-4zm116-4.2c7.4-8.2 10.4-21.6 8-36.2-3-18.6-12.6-25.6-35.8-25.6-26.4 0-35.2 8.6-35.2 34 0 17.2 3.6 26.6 12.4 32 5.6 3.6 9.2 4.2 25.2 3.6 18.6-.6 18.8-.6 25.4-7.8zm-727.8-107c11.2-8.2 13.4-13.4 13.6-30.2 0-12-.8-17-3.8-22.2-11.8-19.8-54.4-19.2-64 1-2.6 5.4-3.2 11-2.6 23.6.6 14.4 1.2 17.4 5.6 22 7.8 8.6 15.4 11.2 31.4 10.4 10.8-.4 15.8-1.6 19.8-4.6zm112.2 0c8.8-6.6 12.6-15.8 12.6-32 0-16.6-4.6-25.6-16-31.2-9.4-4.8-30.6-4.8-39.8 0-12.2 6.2-15.2 12.4-15.2 32 0 15.2.6 18.2 4.8 24.2 6.8 9.6 14.4 12.4 32.6 11.8 11.8-.4 16.6-1.6 21-4.8zM353 546c11.8-5.8 15.8-13.8 16-32 0-25.2-10.6-36-35-36-14 0-23 3.2-30 11-4.6 5-5 6.8-5 25s.4 20 5 25c2.8 3 7.8 6.8 11 8.2 9.2 4 28.4 3.4 38-1.2zm111 .4c11.8-5.8 16-14.6 16-32.4 0-12.6-.8-16.6-4.6-22.2-6.4-9.6-15.8-13.8-31-13.8-24.4 0-34.4 9.2-35.8 32.8-.8 12-.2 15.6 3.8 23 2.8 5.4 7.2 10.4 11.6 12.6 9.2 4.8 30.4 4.8 40 0zm112-.2c11-5.8 14.6-14 14.8-33 .2-13.6-.4-17.2-4.2-22.4-6.4-8.8-15.8-12.8-31-12.8s-24.6 4.2-31.2 14c-4.2 6.2-4.6 8.8-4 23.4.6 18.4 4 25.2 15.8 31 9.4 5 30.6 4.8 39.8-.2zm110 .2c3.8-1.8 9-6.6 11.6-10.4 4.2-6.2 4.6-8.8 4-24.4-.6-15.2-1.2-18-5.6-22.6-7-7.8-16-11-30-11-14.8 0-26.6 5.4-31.2 14.2-4.2 8.4-5.8 25-3 35.2 2.6 9.4 11.8 19.8 18.8 21.2 11.6 2.2 28.8 1.2 35.4-2.2zm110.8.8c11-4.6 15.8-13.4 16.6-31 1.4-26.6-7.6-36.8-33-37.8-18.2-.8-26.6 2.8-34 13.6-4.2 6.2-4.6 8.8-4 23.4.6 18.4 4 25.2 15.8 31 8.4 4.4 29.2 4.8 38.6.8zm109.8 0c3.6-1.4 8.6-5.2 11.4-8.2 4.4-4.6 5-7.4 5.8-22.6.8-21-2.2-28.4-14.8-34.4-11.4-5.6-30.8-5.4-41 .2-11 6.2-14.8 14.2-14.8 30.8 0 18.2 4.2 27.4 15.4 32.8 9.8 5 28.2 5.6 38 1.4zM126.2 384c8.2-2.2 17-10.8 18.8-18 1.6-7-5.4-17.6-14-21.2-8.8-3.6-31.2-3.6-40 0-8.6 3.6-15.6 14.2-14 21.2 1.8 6.8 10.6 15.8 18 17.8 8.4 2.6 22.6 2.6 31.2.2zm120.4-4.6c9.8-7.4 12.2-15.2 7.2-23.2-6.2-10.4-14.8-14.2-31.4-14.2-16 0-23.6 2.8-30.2 11.2-5 6.4-5.2 11-1 19 4.8 9.6 16.8 14.2 34.2 13.2 11.8-.6 15.6-1.8 21.2-6zm101.8 4.6c8.2-2.4 19.6-14 19.6-20.2s-7.8-15.8-15.2-19c-3.6-1.6-12.8-2.8-20.2-2.8-16.6 0-25.8 4.4-31.2 14.6-3.2 6.4-3.4 7.6-.8 12.8 6 11.6 14.8 16.2 31.4 16.4 5 .2 12.4-.8 16.4-1.8zm119.2-3.4c3-2.2 7-6.8 9-10.2 3.4-5.8 3.4-6.6.4-12.8-5.4-11.4-11.8-14.6-31-15.2-15.2-.6-17.8-.2-23.8 4-13.6 9.4-15.4 19.8-5 30.4 7.2 7 15.2 9.2 31.4 8.4 9.8-.4 15.4-1.8 19-4.6zm102.6 3.4c14.4-4 23.2-18 17.2-27.8-6-10.2-14.6-14.2-30.8-14.2-18.6 0-27.4 3.8-32.6 13.8-3 6.2-3.2 8.2-1 13.2 4.8 11.6 14 16.6 31 16.8 5 .2 12.2-.8 16.2-1.8zm119.4-3.4c3-2.2 7.2-7 9.2-11 3.8-7 3.8-7-.4-14-2.4-4-7.6-8.6-11.2-10.4-8.8-4.2-33.2-4.4-41.2-.2-6.8 3.6-14 13-14 18.8s11.2 17.8 18.8 20.2c10 3 32.8 1.2 38.8-3.4zm107.8 1.2c13.8-6.6 18.2-18.8 10.4-28.6-6.6-8.4-14.2-11.2-30.2-11.2-16.6 0-25.2 3.8-31.4 14.2-3 5-3.4 7.4-1.8 12 2.2 6.2 11.8 14.8 18.6 16.4 10.4 2.4 26 1.2 34.4-2.8zm114.2-1.2c3-2.2 7.2-7 9.2-11l4-7-4.8-7.6c-6-9.6-14.4-13-32.2-13-11 0-15.8 1-21.2 4.2-8 5-13.2 14-11.4 20.6 1.4 6.2 10.6 14.8 18 17.2 9.6 3.2 32.4 1 38.4-3.4z" fill="#99AAB5"/>
  <path d="M181 774.2c-12-7.2-14-12.6-14-38.2 0-20.6.4-23.6 4.6-29.4 7.8-11 17.2-13 54.8-12.2 32.4.6 33 .6 40.2 6.2 9.6 7.2 12 16 11.2 39.8-.8 21.8-3.8 27.8-16 34-5.6 3-12.4 3.6-40.8 3.6-29.6 0-34.8-.4-40-3.8zm140 0c-13.2-8.2-14-10.2-14-38.2v-25.8l5.8-6c3.4-3.4 9.2-7.2 13-8.2 9.8-2.6 338.6-2.6 348.4 0 3.8 1 9.6 4.8 13 8.2l5.8 6V736c0 24.6-.2 26-5 31-10.4 11.4-3.6 11-189.4 11-163.6 0-171.8-.2-177.6-3.8zm414.8-.8C725 766.2 722 758 722 736c0-21.2 3-29.8 12.6-36.8 5.2-3.8 9-4.2 38.8-4.8 37.8-.8 47.2 1.2 55 12.2 4.2 5.8 4.6 8.8 4.6 29.4 0 21-.4 23.6-4.8 29.8-7.8 10.8-13.8 12.2-51.8 12.2-31.8 0-34.2-.2-40.6-4.6zM138.6 662c-11.6-7-13.6-12.2-13.6-37s2-30 13.6-37c5.2-3.4 10.2-4 28-4 24.6 0 30.6 2 37.2 12.6 3.6 5.8 4.2 10 4.2 27.2 0 36.2-5.8 42.2-41 42.2-18.2 0-23-.6-28.4-4zm110.4.2c-10.2-7-13-14.6-13-36.8 0-23 2.8-31.2 13.2-37.6 6.2-3.8 9.2-4 30.6-3.4 22.2.6 24.2 1 29.4 5.6 8.2 7.6 10.8 16 10.8 35s-2.6 27.4-10.8 35c-5.2 4.6-7 5-29.8 5.6-21.8.4-25 .2-30.4-3.4zm111.6-.2c-10.6-6.4-13.6-14.2-13.6-37 0-34.2 7-41 41.6-41 24.6 0 30.6 2 37.2 12.6 3.6 5.8 4.2 10 4.2 28.2 0 35.4-5.8 41.2-41 41.2-18.2 0-23-.6-28.4-4zm110.8.4c-9.2-5.8-13.4-17.2-13.4-37 0-20.2 2.6-28.2 11.8-36 6.2-5.2 7.4-5.4 30.2-5.4s24 .2 30.2 5.4c9.2 7.8 11.8 15.8 11.8 36 0 20-4.2 31.6-13.8 37.2-8.4 5-48.6 4.8-56.8-.2zm111.2-.4c-10.2-6.2-12.6-13-12.6-37 0-35.2 5.8-41 41-41s42 6.6 42 41-6.8 41-42 41c-18.2 0-23-.6-28.4-4zm109.2-1.4c-9-7.8-11.8-15.8-11.8-35.6 0-19 2.6-27.4 10.8-35 5.2-4.6 7.2-5 28.8-5.6 26.8-.6 34.4 1.8 40.8 13.8 4.8 9.2 5.2 43 .4 53-5.8 12-13 14.8-39.4 14.8-22.2 0-23.4-.2-29.6-5.4zm112.6 1.4c-9.6-6-12.4-14.4-12.4-38 0-23 2.2-29.4 12.6-35.8 5.8-3.6 10-4.2 28.6-4.2 23.6 0 31.2 2.6 37.8 12.6 4 6 6 27.2 4 42.4-1 9-2.8 13-8 18.8l-6.6 7.2-24.8.6c-22 .4-25.4.2-31.2-3.6zM87 553.2c-3.2-1.4-8.2-5.2-11-8.2-4.6-4.8-5-7-5.6-28-.8-27.8 1.6-34.6 14.4-41 11.8-5.6 40.4-5.8 52.2 0 13.2 6.4 16 13.2 16 38.4 0 18.4-.6 22-4.2 26.8-8.8 11.8-13.4 13.8-35.4 14.4-14 .2-22.2-.4-26.4-2.4zm109.8 0c-3.4-1.6-8.4-5.8-11-9.4-4.4-6.2-4.8-8.8-4.8-30.2 0-20.4.6-24 4.2-29 7-9.6 15.6-12.6 36.8-12.6 22 0 30.2 3 37.4 13.8 4 6 4.6 9.4 4.6 27 0 22.6-2.8 30.8-12.6 38-4.8 3.6-9 4.2-27 4.8-15 .2-23.2-.4-27.6-2.4zm112.2 0c-3.2-1.4-8.2-5.2-11-8.2-4.8-5-5-6.4-5-31s.2-26 5-31c7.8-8.6 16-11 36-11 21.2 0 30.6 3.6 37 14.4 3.4 5.4 4 10.2 4 27.6 0 24.8-3 31.6-16 38-10 4.8-40.2 5.6-50 1.2zm109-.8c-4.4-2.2-8.8-7-11.6-12.6-4.2-7.8-4.6-11-4-28.8.6-16.8 1.4-21 5-26.2 7-9.8 15.6-12.8 37-12.8 21.6 0 30 3.2 37 13.8 4 6 4.6 9.2 4.6 28.2s-.6 22.2-4.6 28.2C474.2 553 466 556 444 556c-14.6 0-20.8-.8-26-3.6zm112.2 0c-12.8-6.4-15.2-12-15.8-37-.6-20.8-.4-23 4-29.4 7.2-11 15.6-14 37.2-14 21.4 0 30 3 37 12.8 3.8 5.2 4.4 9.2 4.8 26.4.4 17.4 0 21.2-4 28.8-6.4 12.8-14 16-37.4 16-14.2 0-20.8-1-25.8-3.6zm114.4 2.2c-7-1.4-16.2-11.8-18.8-21.2-3-11.4-1.4-38.8 2.8-46.8 5.6-10.4 16-14.6 37.4-14.6 20 0 28.2 2.4 36 10.8 4.6 5.2 5 7.2 5.6 28.8.6 21.8.4 23.8-4 30.4-7.4 11-15.6 14-36.6 13.8-9.8-.2-20-.8-22.4-1.2zm107.6-2.2c-12.8-6.4-15.2-12-15.8-37-.6-20.8-.4-23 4-29.4 7.4-11 15.6-14 37.6-14 21.2 0 29.8 3 36.8 12.6 3.6 5 4.2 8.6 4.2 29 0 21.4-.4 24-4.8 30.2-6.8 9.4-15 12.2-36.6 12.2-13.8 0-20.4-1-25.4-3.6zm110.4-.6c-12.2-6-15.6-14.2-15.6-38.8 0-23.2 2.8-29.8 15-36.8 10.6-6 41-6 53-.2 13.2 6.4 15.4 12.6 14.6 40.4-.6 21.6-1 23.6-5.6 28.8-7.8 8.2-16 10.8-35.4 10.8-13.8 0-19.4-1-26-4.2zM89 389.8c-10.6-3-17.6-12.2-18.4-24.2-1-13 4.2-22.4 14.4-26.8 9.2-3.8 42.8-3.8 52 0 10.2 4.4 15.4 13.8 14.4 26.8-.8 12.4-7.8 21.2-19.2 24.4-8.6 2.4-34.8 2.4-43.2-.2zm107.4-1.6c-15.4-7.4-20.6-27.8-10.2-41 7.2-9.2 13.8-11.2 36.2-11.2 17 0 21.8.8 27.2 4 17.8 10.8 18.8 34.2 2.2 46.2-5.8 4-9.4 4.8-26.8 5.4-16.6.4-21.4-.2-28.6-3.4zm114.8 1.8c-22.6-7.2-25.8-39.2-5-50.4 8.6-4.6 42.2-5.2 52.6-.8 14.2 6 20.6 27 11.8 38.8-8.4 11.2-13.4 13.2-34.2 13.8-10.6.2-22-.4-25.2-1.4zm111.6 0c-12.8-4-22.4-19.8-19.4-31.8 1.8-7.6 8.2-15.8 15-19.4 9.4-4.8 48.6-3.2 56 2.2 15.8 11.6 14.8 35.6-1.6 46.4-6.4 4-39.4 5.8-50 2.6zm110.4 0c-10.8-3.4-19.2-15.2-19.2-27 0-8.6 7.2-20.2 14.8-23.8 9.2-4.4 44.8-4.6 53.2-.2 18.8 9.8 19.6 37.2 1.2 48.2-7 4.2-39.8 6-50 2.8zm111.6 0c-3.6-1.2-9.2-5.2-12.6-9-11.6-13.2-7.6-34 7.8-42 8.2-4.2 44-4.2 53.2.2 18.6 8.8 19.6 36.4 1.6 48.2-6.4 4-39.6 5.8-50 2.6zm112.2.6c-11.4-3-21-15.6-21-28 0-7.6 6.6-17.8 14.4-22.6 5.4-3.2 10.2-4 27.2-4 22.4 0 29 2 36.2 11.2 6.4 8 7.2 17 2.6 27.2-5.6 13-16.2 17.6-38.6 17.4-9.2-.2-18.6-.8-20.8-1.2zm110-.6c-10.2-3.2-17.4-12.4-18.6-23.6-1-12 2.8-20.4 12.2-26.2 5.8-3.6 10-4.2 27.2-4.2 23.8 0 31.8 2.6 37.8 12.6 8 12.8 4 30.2-8.8 38.8-6.2 4-39.4 5.8-49.8 2.6z" fill="#292F33"/>
</svg>
